<svg xmlns="http://www.w3.org/2000/svg" xmlns:xlink="http://www.w3.org/1999/xlink" width="940" zoomAndPan="magnify" viewBox="0 0 705 591.000005" height="788" preserveAspectRatio="xMidYMid meet" version="1.0"><defs><g/><clipPath id="ef7f7bb6e1"><rect x="0" width="406" y="0" height="210"/></clipPath></defs><path fill="#3a3a3a" d="M 234.667969 178.398438 C 233.800781 179.898438 233.28125 181.222656 232.417969 182.207031 C 229.878906 185.265625 226.820312 185.898438 223.128906 184.398438 C 220.933594 183.476562 218.570312 182.957031 216.492188 181.800781 C 214.816406 180.878906 213.085938 179.609375 212.105469 177.992188 C 210.144531 174.644531 208.527344 171.070312 207.027344 167.433594 C 202.875 157.335938 198.257812 147.46875 192.253906 138.234375 C 190.8125 135.984375 190.179688 133.15625 189.140625 130.503906 C 188.160156 131.082031 187.179688 131.714844 185.503906 132.753906 C 185.503906 129.925781 185.503906 127.617188 185.503906 125.308594 C 185.273438 125.253906 184.984375 125.195312 184.753906 125.136719 C 183.195312 127.503906 181.636719 129.925781 180.082031 132.292969 C 179.734375 132.234375 179.332031 132.117188 178.984375 132.0625 C 180.542969 127.445312 178.464844 124.269531 175.234375 121.558594 C 175.058594 121.445312 174.886719 121.269531 174.886719 121.097656 C 174.484375 117 171.714844 114.980469 167.210938 113.769531 C 171.25 109.558594 176.328125 108.921875 180.3125 106.441406 C 180.367188 106.269531 180.484375 106.035156 180.425781 105.921875 C 178.636719 102.863281 170.90625 99.574219 167.617188 100.382812 C 162.25 101.765625 160.058594 100.902344 157.519531 96.574219 C 157.574219 97.496094 157.574219 98.421875 157.75 99.34375 C 158.269531 102.230469 157 103.496094 154.054688 102.921875 C 149.785156 102.054688 148.285156 99.863281 148.515625 95.304688 C 148.574219 93.628906 147.996094 91.957031 148.113281 90.285156 C 148.574219 85.378906 149.09375 84.800781 153.824219 82.898438 C 151.113281 78.570312 150.996094 74.183594 153.535156 69.683594 C 155.789062 65.761719 161.269531 64.492188 164.847656 67.203125 C 167.386719 69.164062 169.867188 71.183594 169.578125 73.953125 C 171.714844 75.570312 173.269531 76.839844 174.886719 78.050781 C 175.695312 78.628906 176.445312 79.378906 177.367188 79.667969 C 180.082031 80.589844 182.386719 81.628906 183.371094 84.800781 C 183.890625 86.476562 185.621094 87.6875 186.371094 89.304688 C 186.890625 90.398438 186.601562 91.898438 186.773438 93.226562 C 187.0625 95.246094 188.390625 95.882812 189.832031 94.496094 C 191.273438 93.054688 192.71875 91.496094 193.757812 89.707031 C 197.910156 82.609375 203.625 78.167969 212.222656 79.203125 C 218.742188 80.011719 223.300781 77.703125 227.398438 72.683594 C 232.1875 66.855469 238.878906 66.625 245.574219 68.761719 C 249.265625 69.972656 252.730469 71.992188 256.363281 73.433594 C 258.210938 74.183594 260.171875 74.878906 262.078125 75.050781 C 266.75 75.394531 267.675781 74.589844 268.945312 70.085938 C 274.773438 71.242188 274.945312 72.859375 270.328125 81.6875 C 274.136719 84.226562 277.367188 84.050781 284.753906 80.9375 C 286.3125 83.476562 285.101562 85.726562 284.003906 87.859375 C 282.964844 89.996094 283.601562 91.089844 285.792969 91.089844 C 293.699219 91.089844 299.585938 95.074219 304.835938 100.441406 C 307.953125 103.613281 311.414062 105.804688 316.203125 103.785156 C 316.316406 104.015625 316.433594 104.25 316.605469 104.480469 C 315.566406 105.519531 314.644531 106.789062 313.433594 107.480469 C 312.164062 108.230469 310.546875 108.519531 309.105469 108.808594 C 307.546875 109.09375 305.929688 109.152344 303.507812 109.382812 C 304.71875 110.652344 305.238281 111.578125 305.988281 111.980469 C 307.488281 112.730469 309.105469 113.421875 310.777344 113.828125 C 316.316406 115.210938 320.703125 118.097656 324.109375 122.714844 C 328.550781 128.773438 329.589844 128.945312 336.746094 126.40625 C 336.6875 129.40625 334.4375 132.234375 330.976562 132.636719 C 327.917969 133.042969 324.800781 132.695312 321.109375 132.695312 C 325.089844 138.753906 330.570312 140.429688 337.496094 140.429688 C 336.285156 141.753906 335.589844 142.792969 334.609375 143.429688 C 331.03125 145.679688 331.726562 150.527344 335.589844 152.257812 C 338.1875 153.410156 341.363281 153.410156 344.707031 153.988281 C 342.515625 155.257812 340.207031 156.644531 337.667969 158.144531 C 339.109375 161.257812 342.515625 160.96875 345.515625 161.894531 C 341.074219 165.414062 336.050781 163.914062 331.492188 164.433594 C 331.667969 169.855469 342.515625 177.128906 353.652344 179.4375 C 353.710938 178.511719 353.824219 177.589844 353.824219 176.664062 C 353.824219 127.964844 353.824219 79.261719 353.882812 30.5625 C 353.882812 28.65625 353.421875 27.386719 351.863281 26.175781 C 347.1875 22.539062 346.671875 16.136719 350.59375 11.980469 C 354.519531 7.824219 360.632812 7.824219 364.671875 12.039062 C 368.539062 16.019531 368.136719 22.308594 363.636719 26.003906 C 362.25 27.15625 361.671875 28.308594 361.671875 30.15625 C 361.730469 79.4375 361.789062 128.714844 361.789062 177.992188 C 361.789062 178.742188 361.789062 179.492188 361.789062 181.109375 C 368.078125 180.53125 374.136719 180.359375 380.082031 179.320312 C 394.5625 176.722656 405.757812 168.761719 414.585938 157.164062 C 415.914062 155.429688 417.875 153.929688 419.894531 152.949219 C 423.070312 151.449219 426.183594 153.640625 425.78125 157.046875 C 425.492188 159.414062 424.164062 161.605469 423.414062 163.972656 C 423.070312 165.011719 422.609375 166.335938 422.953125 167.203125 C 423.183594 167.78125 424.914062 168.125 425.839844 167.953125 C 436.398438 165.816406 446.207031 168.125 455.5 173.03125 C 457.691406 174.183594 458.382812 173.609375 459.710938 171.761719 C 463.171875 166.742188 466.460938 161.316406 470.90625 157.335938 C 480.945312 148.332031 492.890625 147.929688 505.125 152.371094 C 516.085938 156.355469 523.011719 164.433594 527.398438 174.992188 C 529.359375 179.722656 531.496094 184.457031 533.976562 188.957031 C 536.109375 192.824219 539.859375 194.898438 544.015625 196.167969 C 549.324219 197.726562 553.824219 200.441406 556.882812 205.230469 C 559.882812 209.902344 559.539062 213.597656 555.730469 217.75 C 555.324219 218.15625 555.210938 219.195312 555.382812 219.710938 C 557 223.867188 556.480469 227.847656 555.152344 232.0625 C 554.171875 235.0625 553.769531 238.351562 553.769531 241.523438 C 553.769531 244.007812 554.980469 246.488281 557.863281 247.121094 C 560.632812 247.8125 562.652344 246.257812 564.328125 244.292969 C 565.019531 243.542969 565.597656 242.738281 566.347656 241.8125 C 567.097656 247.351562 564.960938 251.277344 560.578125 252.660156 C 555.789062 254.160156 550.824219 251.796875 548.171875 246.832031 C 547.707031 246.027344 547.015625 245.332031 546.4375 244.582031 C 545.976562 245.5625 545.113281 246.488281 545.113281 247.46875 C 544.9375 252.546875 544.304688 257.738281 545.167969 262.644531 C 546.496094 270.261719 554.632812 276.78125 562.480469 273.03125 C 564.960938 271.820312 566.925781 269.511719 569.40625 267.492188 C 570.558594 270.375 569.867188 273.03125 568.539062 275.570312 C 565.367188 281.628906 556.882812 284.28125 550.191406 281.28125 C 541.707031 277.53125 536.570312 270.605469 533.109375 262.296875 C 530.167969 255.257812 530.167969 247.699219 529.589844 240.253906 C 529.300781 236.5625 529.011719 232.925781 526.011719 230.273438 C 525.378906 229.695312 524.398438 229.578125 523.589844 229.292969 C 523.472656 230.097656 523.183594 230.90625 523.242188 231.65625 C 523.414062 234.195312 522.894531 236.332031 520.242188 237.890625 C 520.011719 235.582031 519.839844 233.503906 519.664062 231.425781 C 519.261719 231.367188 518.800781 231.3125 518.394531 231.253906 C 517.875 233.042969 516.953125 234.890625 517.011719 236.621094 C 517.066406 238.523438 517.761719 240.542969 518.683594 242.273438 C 519.550781 244.003906 520.992188 245.390625 522.203125 246.949219 C 522.089844 247.179688 521.972656 247.410156 521.859375 247.640625 C 520.589844 247.238281 519.261719 246.949219 518.105469 246.3125 C 513.953125 244.007812 512.164062 240.023438 510.605469 235.8125 C 509.914062 233.964844 508.703125 232.292969 507.71875 230.5625 C 505.875 227.386719 505.125 223.984375 505.355469 220.40625 C 505.644531 216.308594 506.046875 212.210938 506.164062 208.054688 C 506.449219 198.1875 503.390625 189.417969 497.507812 181.570312 C 492.949219 175.511719 486.714844 173.664062 479.734375 176.433594 C 477.078125 177.472656 474.539062 178.800781 472 180.128906 C 470.558594 180.878906 470.269531 181.859375 471.769531 183.246094 C 490.351562 200.324219 493.523438 228.136719 483.890625 249.140625 C 482.273438 252.71875 483.773438 255.316406 487.003906 256.527344 C 496.410156 260.046875 505.644531 258.664062 514.296875 254.449219 C 523.414062 250.007812 528.03125 252.429688 529.128906 262.183594 C 530.226562 272.164062 532.417969 281.742188 535.996094 291.09375 C 539.226562 299.574219 544.765625 306.035156 551.863281 311.347656 C 555.5 314.058594 558.789062 313.539062 560.402344 309.269531 C 563.402344 301.59375 574.253906 298.535156 581.351562 306.035156 C 583.542969 308.402344 585.910156 310.59375 588.503906 313.191406 C 581.40625 317 574.886719 320.695312 568.25 324.039062 C 566.578125 324.90625 564.328125 325.078125 562.367188 324.964844 C 555.789062 324.558594 549.210938 323.867188 542.632812 323.40625 C 537.4375 323.058594 534.667969 319.945312 532.707031 315.5 C 529.476562 308.171875 526.300781 300.785156 522.492188 293.746094 C 520.703125 290.398438 517.53125 287.746094 514.933594 284.800781 C 513.433594 283.070312 512.277344 283.246094 510.953125 285.265625 C 504.144531 295.59375 497.046875 305.75 492.3125 317.230469 C 489.832031 323.289062 488.101562 329.695312 485.851562 335.871094 C 485.273438 337.542969 484.351562 339.214844 483.195312 340.601562 C 478.867188 345.851562 478.925781 349.082031 481.523438 355.375 C 483.3125 359.703125 484.871094 364.835938 484.234375 369.335938 C 483.195312 377.070312 476.734375 380.589844 469.695312 382.667969 C 468.078125 383.128906 466.289062 383.128906 464.617188 383.417969 C 462.308594 383.820312 460.980469 382.78125 461.269531 380.417969 C 461.960938 374.820312 462.769531 369.28125 463.691406 363.742188 C 463.921875 362.238281 464.441406 360.683594 465.25 359.46875 C 467.675781 355.777344 467.617188 351.679688 467.90625 347.582031 C 468.25 342.449219 467.847656 337.140625 468.886719 332.117188 C 469.578125 328.65625 471.945312 325.425781 473.847656 322.25 C 478.003906 315.441406 481.984375 308.574219 483.890625 300.726562 C 484.351562 298.882812 484.582031 296.976562 484.695312 295.074219 C 485.042969 289.246094 483.542969 287.457031 477.65625 286.996094 C 471.714844 286.535156 465.828125 286.246094 459.882812 285.839844 C 448.113281 285.03125 437.496094 280.820312 427.972656 274.011719 C 425.839844 272.511719 424.28125 269.914062 423.128906 267.492188 C 420.875 262.757812 419.261719 257.679688 417.070312 252.949219 C 415.394531 249.257812 411.414062 247.410156 407.546875 248.507812 C 404.71875 249.316406 401.835938 250.296875 399.351562 251.851562 C 387.929688 259.183594 375.347656 263.566406 361.960938 266.511719 C 361.960938 295.648438 361.960938 324.90625 361.960938 354.390625 C 364.386719 354.277344 365.308594 355.257812 365.597656 357.679688 C 366.808594 367.953125 369.175781 377.878906 374.65625 386.820312 C 376.792969 390.339844 378.695312 394.09375 380.945312 398.246094 C 384.410156 398.59375 388.910156 398.996094 393.351562 399.515625 C 394.792969 399.691406 396.410156 399.746094 397.507812 400.496094 C 398.777344 401.363281 400.21875 402.804688 400.449219 404.191406 C 400.738281 406.035156 401.375 406.441406 402.988281 406.382812 C 406.335938 406.269531 409.683594 406.152344 413.085938 406.210938 C 417.414062 406.269531 420.183594 408.980469 420.644531 413.308594 C 420.820312 415.097656 420.359375 416.019531 418.339844 415.960938 C 414.761719 415.847656 411.242188 415.960938 407.664062 415.960938 C 372.289062 415.960938 336.976562 415.960938 301.605469 416.019531 C 298.140625 416.019531 297.332031 414.980469 298.140625 411.691406 C 298.949219 408.460938 301.371094 406.441406 304.777344 406.441406 C 308.988281 406.382812 313.203125 406.441406 317.585938 406.441406 C 317.472656 401.363281 320.820312 400.035156 324.628906 399.515625 C 328.492188 398.941406 332.417969 398.707031 335.707031 398.421875 C 337.496094 394.726562 338.878906 391.035156 340.898438 387.800781 C 346.496094 378.6875 349.035156 368.644531 350.015625 358.144531 C 350.191406 356.007812 350.535156 354.21875 353.652344 354.679688 C 353.652344 325.597656 353.652344 296.746094 353.652344 267.78125 C 352.441406 267.78125 350.996094 267.605469 349.613281 267.78125 C 339.859375 269.164062 330.339844 267.316406 320.820312 265.644531 C 316.894531 264.953125 312.972656 263.855469 308.988281 263.277344 C 307.953125 263.105469 306.21875 263.742188 305.757812 264.546875 C 303.046875 269.222656 299.238281 271.414062 293.8125 271.761719 C 291.332031 271.933594 288.332031 273.144531 286.660156 274.878906 C 281.523438 280.300781 274.945312 282.492188 268.25 284.859375 C 261.152344 287.339844 253.882812 289.589844 247.015625 292.59375 C 239.398438 295.9375 238.015625 301.710938 242.113281 309.039062 C 246.726562 317.289062 253.015625 324.039062 259.652344 330.617188 C 260.808594 331.773438 261.960938 332.925781 262.886719 334.253906 C 265.539062 337.890625 268.425781 339.101562 272.925781 336.15625 C 277.886719 332.867188 282.214844 332.867188 286.140625 337.3125 C 289.542969 341.179688 291.679688 346.140625 294.21875 350.757812 C 294.449219 351.160156 293.640625 352.71875 293.179688 352.777344 C 286.429688 353.410156 279.675781 354.160156 272.925781 354.335938 C 270.964844 354.390625 268.65625 353.179688 267.039062 351.910156 C 263.171875 348.910156 259.132812 346.488281 254.230469 345.792969 C 250.363281 345.21875 247.882812 342.851562 246.09375 339.621094 C 239.398438 327.792969 232.300781 316.191406 223.761719 305.574219 C 220.359375 301.304688 219.664062 296.113281 220.070312 290.859375 C 220.300781 287.746094 222.378906 285.4375 224.800781 283.589844 C 228.492188 280.820312 232.1875 278.109375 235.878906 275.339844 C 236.746094 274.703125 237.554688 273.894531 239.054688 272.570312 C 234.839844 271.589844 231.378906 270.722656 227.859375 269.972656 C 223.992188 269.164062 220.125 268.53125 216.316406 267.894531 C 211.296875 267.03125 206.855469 268.242188 205.179688 274.472656 C 202.875 283.128906 200.566406 291.667969 200.855469 300.726562 C 200.910156 302.746094 201.71875 304.765625 202.179688 306.84375 C 202.757812 309.5 203.160156 312.152344 203.796875 314.808594 C 204.027344 315.789062 204.316406 316.828125 204.949219 317.578125 C 205.527344 318.269531 206.507812 318.90625 207.316406 319.019531 C 216.433594 320.289062 218.972656 326.984375 220.359375 334.601562 C 220.703125 336.503906 220.933594 338.410156 220.992188 340.3125 C 221.109375 344.0625 220.820312 344.410156 217.070312 343.660156 C 213.144531 342.851562 209.222656 341.8125 205.414062 340.601562 C 204.257812 340.253906 203.160156 339.101562 202.46875 338.0625 C 199.296875 333.15625 197.101562 327.386719 193.121094 323.347656 C 185.910156 316.019531 185.675781 307.941406 187.699219 298.9375 C 189.949219 288.667969 190.988281 278.28125 190.46875 267.78125 C 190.292969 264.722656 191.21875 262.125 193.007812 259.757812 C 194.679688 257.566406 196.410156 255.375 198.082031 253.179688 C 200.21875 250.410156 203.160156 249.371094 206.449219 249.71875 C 215.566406 250.582031 224.398438 248.796875 233.28125 247.46875 C 237.898438 246.777344 242.632812 246.660156 247.304688 246.488281 C 251.460938 246.3125 252.382812 245.273438 250.882812 241.351562 C 248.460938 235.003906 246.207031 228.65625 245.746094 221.730469 C 245.171875 213.019531 246.035156 204.535156 248.863281 196.226562 C 255.039062 177.992188 253.941406 159.757812 248.460938 141.640625 C 247.304688 137.832031 244.652344 134.425781 242.34375 131.082031 C 240.957031 129.117188 239.804688 129.523438 238.996094 131.832031 C 237.726562 135.523438 236.457031 139.214844 235.1875 142.910156 C 232.476562 150.871094 233.339844 158.777344 235.765625 166.566406 C 236.457031 168.761719 238.074219 170.722656 239.398438 172.683594 C 241.074219 175.164062 241.363281 177.703125 239.917969 180.242188 C 239.457031 181.109375 238.304688 181.6875 237.496094 182.378906 C 236.917969 181.511719 236.285156 180.707031 235.707031 179.78125 C 235.015625 179.550781 234.957031 179.148438 234.667969 178.398438 Z M 234.667969 178.398438 " fill-opacity="1" fill-rule="nonzero"/><g transform="matrix(1, 0, 0, 1, 158, 380)"><g clip-path="url(#ef7f7bb6e1)"><g fill="#3a3a3a" fill-opacity="1"><g transform="translate(0.512825, 181.082125)"><g><path d="M 23.5 -118.609375 L 21.3125 -131.90625 L 38.8125 -131.90625 L 60.84375 0 L 43.171875 0 L 39.53125 -22.046875 L 16.03125 -22.046875 L 12.390625 0 L 3.640625 0 Z M 38.078125 -30.796875 L 27.875 -92.375 L 17.484375 -30.796875 Z M 38.078125 -30.796875 "/></g></g></g><g fill="#3a3a3a" fill-opacity="1"><g transform="translate(65.000871, 181.082125)"><g><path d="M 11.65625 -92.375 L 7.28125 -105.484375 L 24.78125 -105.484375 L 51.1875 -26.421875 L 77.609375 -105.484375 L 90.734375 -105.484375 L 90.734375 0 L 73.234375 0 L 73.234375 -65.953125 L 51.1875 0 L 42.453125 0 L 20.40625 -65.953125 L 20.40625 0 L 11.65625 0 Z M 11.65625 -92.375 "/></g></g></g><g fill="#3a3a3a" fill-opacity="1"><g transform="translate(165.740674, 181.082125)"><g><path d="M 33.703125 0 C 30.054688 0 26.625 -0.546875 23.40625 -1.640625 C 20.1875 -2.734375 17.394531 -4.375 15.03125 -6.5625 C 12.664062 -8.75 10.78125 -11.507812 9.375 -14.84375 C 7.976562 -18.1875 7.28125 -22.046875 7.28125 -26.421875 L 7.28125 -105.484375 L 24.953125 -105.484375 L 24.953125 -26.421875 C 24.953125 -25.203125 24.984375 -23.832031 25.046875 -22.3125 C 25.109375 -20.800781 25.410156 -19.34375 25.953125 -17.9375 C 26.503906 -16.539062 27.382812 -15.390625 28.59375 -14.484375 C 29.8125 -13.578125 31.515625 -13.125 33.703125 -13.125 C 35.890625 -13.125 37.5625 -13.578125 38.71875 -14.484375 C 39.875 -15.390625 40.722656 -16.539062 41.265625 -17.9375 C 41.804688 -19.34375 42.140625 -20.800781 42.265625 -22.3125 C 42.390625 -23.832031 42.453125 -25.203125 42.453125 -26.421875 L 42.453125 -105.484375 L 60.125 -105.484375 L 60.125 -26.421875 C 60.125 -22.046875 59.425781 -18.1875 58.03125 -14.84375 C 56.632812 -11.507812 54.75 -8.75 52.375 -6.5625 C 50.007812 -4.375 47.21875 -2.734375 44 -1.640625 C 40.78125 -0.546875 37.347656 0 33.703125 0 Z M 33.703125 0 "/></g></g></g><g fill="#3a3a3a" fill-opacity="1"><g transform="translate(233.143444, 181.082125)"><g><path d="M 25.5 0 C 22.59375 0 19.953125 -0.601562 17.578125 -1.8125 C 15.210938 -3.03125 13.207031 -4.398438 11.5625 -5.921875 C 9.925781 -7.441406 8.617188 -8.957031 7.640625 -10.46875 C 6.671875 -11.988281 6.003906 -13.054688 5.640625 -13.671875 L 12.75 -19.5 C 13.601562 -18.28125 14.515625 -17.242188 15.484375 -16.390625 C 16.335938 -15.660156 17.25 -14.992188 18.21875 -14.390625 C 19.1875 -13.785156 20.28125 -13.484375 21.5 -13.484375 C 23.925781 -13.484375 25.835938 -14.601562 27.234375 -16.84375 C 28.628906 -19.09375 29.328125 -21.796875 29.328125 -24.953125 C 29.328125 -25.679688 29.328125 -26.378906 29.328125 -27.046875 C 29.328125 -27.722656 29.207031 -28.425781 28.96875 -29.15625 C 28 -33.15625 26.238281 -37.066406 23.6875 -40.890625 C 21.132812 -44.722656 18.488281 -48.671875 15.75 -52.734375 C 13.019531 -56.804688 10.625 -61.085938 8.5625 -65.578125 C 6.5 -70.078125 5.46875 -75 5.46875 -80.34375 C 5.34375 -84.113281 5.828125 -87.546875 6.921875 -90.640625 C 8.015625 -93.734375 9.53125 -96.375 11.46875 -98.5625 C 13.414062 -100.75 15.722656 -102.445312 18.390625 -103.65625 C 21.066406 -104.875 23.925781 -105.484375 26.96875 -105.484375 C 29.882812 -105.484375 32.523438 -104.875 34.890625 -103.65625 C 37.253906 -102.445312 39.253906 -101.082031 40.890625 -99.5625 C 42.535156 -98.039062 43.84375 -96.519531 44.8125 -95 C 45.789062 -93.488281 46.460938 -92.429688 46.828125 -91.828125 L 39.71875 -86 C 39.71875 -86 39.472656 -86.300781 38.984375 -86.90625 C 38.503906 -87.507812 37.835938 -88.207031 36.984375 -89 C 36.128906 -89.789062 35.1875 -90.488281 34.15625 -91.09375 C 33.125 -91.695312 32.003906 -92 30.796875 -92 C 28.359375 -92 26.441406 -90.9375 25.046875 -88.8125 C 23.648438 -86.6875 22.953125 -84.046875 22.953125 -80.890625 C 22.953125 -79.304688 23.132812 -77.789062 23.5 -76.34375 C 24.46875 -72.332031 26.226562 -68.410156 28.78125 -64.578125 C 31.332031 -60.753906 33.972656 -56.804688 36.703125 -52.734375 C 39.441406 -48.671875 41.84375 -44.390625 43.90625 -39.890625 C 45.96875 -35.398438 47 -30.484375 47 -25.140625 C 47.125 -21.378906 46.640625 -17.945312 45.546875 -14.84375 C 44.453125 -11.75 42.898438 -9.109375 40.890625 -6.921875 C 38.890625 -4.734375 36.550781 -3.03125 33.875 -1.8125 C 31.207031 -0.601562 28.414062 0 25.5 0 Z M 25.5 0 "/></g></g></g><g fill="#3a3a3a" fill-opacity="1"><g transform="translate(285.608301, 181.082125)"><g><path d="M 9.109375 -105.484375 L 48.640625 -105.484375 L 44.265625 -96.734375 L 26.78125 -96.734375 L 26.78125 -65.953125 L 44.265625 -65.953125 L 39.90625 -57.203125 L 26.78125 -57.203125 L 26.78125 -8.75 L 48.640625 -8.75 L 48.640625 0 L 9.109375 0 Z M 9.109375 -105.484375 "/></g></g></g><g fill="#3a3a3a" fill-opacity="1"><g transform="translate(339.712695, 181.082125)"><g><path d="M 23.5 -118.609375 L 21.3125 -131.90625 L 38.8125 -131.90625 L 60.84375 0 L 43.171875 0 L 39.53125 -22.046875 L 16.03125 -22.046875 L 12.390625 0 L 3.640625 0 Z M 38.078125 -30.796875 L 27.875 -92.375 L 17.484375 -30.796875 Z M 38.078125 -30.796875 "/></g></g></g></g></g></svg>