<svg xmlns="http://www.w3.org/2000/svg" xmlns:xlink="http://www.w3.org/1999/xlink" width="940" zoomAndPan="magnify" viewBox="0 0 705 591.000005" height="788" preserveAspectRatio="xMidYMid meet" version="1.0"><path fill="#3a3a3a" d="M 187.792969 247.246094 C 186.585938 249.34375 185.859375 251.199219 184.648438 252.570312 C 181.101562 256.84375 176.824219 257.730469 171.664062 255.636719 C 168.597656 254.34375 165.289062 253.617188 162.386719 252.003906 C 160.046875 250.714844 157.628906 248.941406 156.257812 246.683594 C 153.515625 242.003906 151.257812 237.003906 149.160156 231.921875 C 143.351562 217.804688 136.898438 204.011719 128.511719 191.109375 C 126.492188 187.960938 125.605469 184.011719 124.15625 180.300781 C 122.785156 181.105469 121.414062 181.992188 119.074219 183.445312 C 119.074219 179.492188 119.074219 176.265625 119.074219 173.039062 C 118.75 172.960938 118.347656 172.878906 118.023438 172.796875 C 115.847656 176.105469 113.667969 179.492188 111.492188 182.800781 C 111.007812 182.71875 110.441406 182.558594 109.957031 182.476562 C 112.136719 176.023438 109.234375 171.589844 104.714844 167.796875 C 104.472656 167.636719 104.230469 167.394531 104.230469 167.152344 C 103.667969 161.425781 99.796875 158.601562 93.503906 156.910156 C 99.152344 151.019531 106.25 150.132812 111.8125 146.664062 C 111.894531 146.421875 112.054688 146.101562 111.976562 145.9375 C 109.476562 141.664062 98.667969 137.066406 94.070312 138.195312 C 86.566406 140.132812 83.503906 138.921875 79.953125 132.871094 C 80.035156 134.164062 80.035156 135.453125 80.277344 136.746094 C 81.003906 140.777344 79.226562 142.550781 75.113281 141.746094 C 69.144531 140.535156 67.046875 137.46875 67.371094 131.097656 C 67.453125 128.757812 66.644531 126.421875 66.804688 124.082031 C 67.453125 117.226562 68.179688 116.417969 74.792969 113.757812 C 71 107.707031 70.839844 101.578125 74.386719 95.285156 C 77.535156 89.800781 85.195312 88.027344 90.199219 91.816406 C 93.746094 94.558594 97.214844 97.382812 96.8125 101.253906 C 99.796875 103.511719 101.972656 105.289062 104.230469 106.980469 C 105.363281 107.789062 106.410156 108.835938 107.699219 109.238281 C 111.492188 110.53125 114.71875 111.980469 116.089844 116.417969 C 116.816406 118.757812 119.234375 120.453125 120.285156 122.710938 C 121.007812 124.242188 120.605469 126.339844 120.847656 128.195312 C 121.25 131.015625 123.105469 131.90625 125.121094 129.96875 C 127.140625 127.953125 129.15625 125.773438 130.609375 123.273438 C 136.414062 113.351562 144.398438 107.140625 156.417969 108.59375 C 165.53125 109.722656 171.90625 106.496094 177.632812 99.480469 C 184.324219 91.332031 193.683594 91.011719 203.039062 93.996094 C 208.199219 95.6875 213.039062 98.511719 218.121094 100.527344 C 220.703125 101.578125 223.445312 102.546875 226.105469 102.785156 C 232.640625 103.269531 233.929688 102.140625 235.707031 95.851562 C 243.851562 97.464844 244.09375 99.722656 237.640625 112.0625 C 242.964844 115.613281 247.480469 115.371094 257.804688 111.015625 C 259.984375 114.5625 258.289062 117.707031 256.757812 120.691406 C 255.304688 123.675781 256.191406 125.210938 259.257812 125.210938 C 270.308594 125.210938 278.535156 130.777344 285.875 138.277344 C 290.230469 142.714844 295.070312 145.777344 301.765625 142.953125 C 301.925781 143.277344 302.085938 143.601562 302.328125 143.921875 C 300.878906 145.375 299.585938 147.148438 297.894531 148.117188 C 296.117188 149.164062 293.859375 149.570312 291.84375 149.972656 C 289.667969 150.375 287.40625 150.457031 284.019531 150.777344 C 285.714844 152.554688 286.441406 153.84375 287.488281 154.410156 C 289.585938 155.457031 291.84375 156.425781 294.183594 156.988281 C 301.925781 158.925781 308.054688 162.957031 312.816406 169.410156 C 319.027344 177.878906 320.476562 178.121094 330.480469 174.574219 C 330.398438 178.765625 327.253906 182.71875 322.414062 183.285156 C 318.140625 183.847656 313.78125 183.363281 308.621094 183.363281 C 314.1875 191.835938 321.847656 194.171875 331.527344 194.171875 C 329.835938 196.027344 328.867188 197.480469 327.496094 198.367188 C 322.496094 201.511719 323.460938 208.289062 328.867188 210.707031 C 332.496094 212.320312 336.933594 212.320312 341.609375 213.128906 C 338.546875 214.902344 335.320312 216.839844 331.769531 218.933594 C 333.785156 223.289062 338.546875 222.886719 342.738281 224.179688 C 336.527344 229.097656 329.511719 227 323.140625 227.726562 C 323.382812 235.308594 338.546875 245.472656 354.113281 248.699219 C 354.191406 247.40625 354.355469 246.117188 354.355469 244.828125 C 354.355469 176.75 354.355469 108.675781 354.433594 40.597656 C 354.433594 37.9375 353.789062 36.164062 351.613281 34.46875 C 345.078125 29.386719 344.351562 20.433594 349.835938 14.628906 C 355.320312 8.820312 363.871094 8.820312 369.519531 14.707031 C 374.921875 20.273438 374.359375 29.066406 368.066406 34.226562 C 366.128906 35.839844 365.324219 37.453125 365.324219 40.035156 C 365.40625 108.917969 365.484375 177.800781 365.484375 246.683594 C 365.484375 247.730469 365.484375 248.777344 365.484375 251.039062 C 374.277344 250.230469 382.746094 249.988281 391.054688 248.535156 C 411.300781 244.90625 426.945312 233.777344 439.289062 217.5625 C 441.144531 215.144531 443.886719 213.046875 446.707031 211.675781 C 451.144531 209.578125 455.5 212.644531 454.9375 217.402344 C 454.53125 220.710938 452.675781 223.773438 451.628906 227.082031 C 451.144531 228.535156 450.5 230.390625 450.984375 231.597656 C 451.304688 232.40625 453.726562 232.890625 455.015625 232.648438 C 469.777344 229.664062 483.488281 232.890625 496.476562 239.746094 C 499.539062 241.359375 500.507812 240.550781 502.363281 237.972656 C 507.203125 230.953125 511.800781 223.371094 518.011719 217.804688 C 532.046875 205.222656 548.742188 204.660156 565.839844 210.871094 C 581.167969 216.433594 590.84375 227.726562 596.976562 242.488281 C 599.71875 249.101562 602.703125 255.714844 606.171875 262.007812 C 609.15625 267.410156 614.398438 270.316406 620.203125 272.089844 C 627.625 274.265625 633.917969 278.058594 638.191406 284.753906 C 642.386719 291.285156 641.902344 296.449219 636.578125 302.253906 C 636.015625 302.820312 635.851562 304.273438 636.09375 305 C 638.351562 310.804688 637.628906 316.371094 635.773438 322.257812 C 634.402344 326.453125 633.835938 331.050781 633.835938 335.488281 C 633.835938 338.957031 635.53125 342.421875 639.5625 343.3125 C 643.433594 344.277344 646.257812 342.101562 648.597656 339.359375 C 649.566406 338.308594 650.371094 337.179688 651.417969 335.890625 C 652.46875 343.632812 649.484375 349.117188 643.355469 351.054688 C 636.660156 353.152344 629.722656 349.84375 626.011719 342.90625 C 625.367188 341.777344 624.398438 340.808594 623.59375 339.761719 C 622.949219 341.132812 621.738281 342.421875 621.738281 343.792969 C 621.496094 350.894531 620.609375 358.152344 621.816406 365.007812 C 623.671875 375.65625 635.046875 384.769531 646.015625 379.527344 C 649.484375 377.832031 652.226562 374.605469 655.695312 371.785156 C 657.308594 375.816406 656.339844 379.527344 654.484375 383.074219 C 650.046875 391.542969 638.191406 395.253906 628.835938 391.0625 C 616.976562 385.816406 609.800781 376.140625 604.960938 364.523438 C 600.847656 354.683594 600.847656 344.117188 600.039062 333.710938 C 599.636719 328.550781 599.234375 323.46875 595.039062 319.757812 C 594.152344 318.953125 592.78125 318.789062 591.652344 318.386719 C 591.492188 319.515625 591.085938 320.644531 591.167969 321.695312 C 591.410156 325.242188 590.683594 328.226562 586.972656 330.40625 C 586.652344 327.179688 586.410156 324.277344 586.167969 321.371094 C 585.601562 321.292969 584.957031 321.210938 584.390625 321.128906 C 583.667969 323.628906 582.375 326.210938 582.457031 328.632812 C 582.539062 331.292969 583.503906 334.117188 584.796875 336.535156 C 586.003906 338.957031 588.023438 340.890625 589.714844 343.070312 C 589.554688 343.390625 589.394531 343.714844 589.230469 344.035156 C 587.457031 343.472656 585.601562 343.070312 583.988281 342.179688 C 578.183594 338.957031 575.679688 333.390625 573.503906 327.5 C 572.535156 324.921875 570.84375 322.582031 569.46875 320.160156 C 566.890625 315.726562 565.839844 310.964844 566.164062 305.964844 C 566.566406 300.238281 567.132812 294.511719 567.292969 288.703125 C 567.695312 274.914062 563.421875 262.652344 555.195312 251.683594 C 548.820312 243.214844 540.109375 240.632812 530.351562 244.503906 C 526.640625 245.957031 523.09375 247.8125 519.542969 249.667969 C 517.527344 250.714844 517.125 252.085938 519.21875 254.023438 C 545.191406 277.898438 549.628906 316.773438 536.160156 346.132812 C 533.898438 351.132812 535.996094 354.765625 540.515625 356.457031 C 553.660156 361.378906 566.566406 359.441406 578.664062 353.554688 C 591.410156 347.34375 597.863281 350.730469 599.394531 364.363281 C 600.925781 378.316406 603.992188 391.707031 608.992188 404.773438 C 613.511719 416.628906 621.253906 425.664062 631.175781 433.082031 C 636.257812 436.875 640.855469 436.148438 643.113281 430.179688 C 647.304688 419.453125 662.46875 415.175781 672.390625 425.664062 C 675.457031 428.96875 678.761719 432.035156 682.394531 435.664062 C 672.472656 440.988281 663.355469 446.152344 654.082031 450.828125 C 651.742188 452.039062 648.597656 452.28125 645.855469 452.121094 C 636.660156 451.554688 627.464844 450.585938 618.269531 449.941406 C 611.011719 449.457031 607.136719 445.101562 604.394531 438.890625 C 599.878906 428.648438 595.441406 418.324219 590.121094 408.484375 C 587.617188 403.804688 583.183594 400.09375 579.554688 395.980469 C 577.457031 393.5625 575.84375 393.804688 573.988281 396.625 C 564.46875 411.0625 554.550781 425.261719 547.933594 441.3125 C 544.464844 449.78125 542.046875 458.734375 538.902344 467.363281 C 538.09375 469.703125 536.804688 472.042969 535.191406 473.976562 C 529.140625 481.316406 529.222656 485.835938 532.851562 494.625 C 535.351562 500.675781 537.53125 507.855469 536.644531 514.144531 C 535.191406 524.953125 526.15625 529.875 516.316406 532.777344 C 514.058594 533.421875 511.558594 533.421875 509.21875 533.828125 C 505.992188 534.390625 504.136719 532.9375 504.539062 529.632812 C 505.507812 521.808594 506.636719 514.066406 507.929688 506.320312 C 508.25 504.222656 508.976562 502.046875 510.105469 500.351562 C 513.492188 495.191406 513.414062 489.464844 513.816406 483.738281 C 514.300781 476.558594 513.734375 469.136719 515.1875 462.121094 C 516.15625 457.28125 519.460938 452.765625 522.125 448.328125 C 527.933594 438.808594 533.496094 429.210938 536.160156 418.242188 C 536.804688 415.660156 537.125 413 537.289062 410.339844 C 537.773438 402.191406 535.675781 399.691406 527.449219 399.046875 C 519.140625 398.402344 510.914062 397.996094 502.605469 397.433594 C 486.152344 396.304688 471.308594 390.414062 458 380.898438 C 455.015625 378.800781 452.839844 375.171875 451.226562 371.785156 C 448.078125 365.167969 445.820312 358.070312 442.757812 351.457031 C 440.417969 346.296875 434.851562 343.714844 429.449219 345.246094 C 425.496094 346.375 421.460938 347.746094 417.992188 349.925781 C 402.023438 360.167969 384.441406 366.296875 365.726562 370.410156 C 365.726562 411.144531 365.726562 452.039062 365.726562 493.253906 C 369.113281 493.09375 370.40625 494.464844 370.808594 497.851562 C 372.503906 512.210938 375.808594 526.082031 383.472656 538.585938 C 386.457031 543.503906 389.117188 548.75 392.265625 554.554688 C 397.105469 555.039062 403.394531 555.605469 409.605469 556.328125 C 411.621094 556.570312 413.878906 556.652344 415.414062 557.703125 C 417.1875 558.910156 419.203125 560.925781 419.527344 562.863281 C 419.929688 565.445312 420.816406 566.007812 423.074219 565.929688 C 427.753906 565.765625 432.433594 565.605469 437.191406 565.6875 C 443.242188 565.765625 447.113281 569.558594 447.757812 575.609375 C 448 578.109375 447.355469 579.398438 444.53125 579.316406 C 439.53125 579.15625 434.609375 579.316406 429.609375 579.316406 C 380.164062 579.316406 330.800781 579.316406 281.359375 579.398438 C 276.519531 579.398438 275.390625 577.945312 276.519531 573.347656 C 277.648438 568.832031 281.035156 566.007812 285.792969 566.007812 C 291.683594 565.929688 297.570312 566.007812 303.699219 566.007812 C 303.539062 558.910156 308.21875 557.054688 313.542969 556.328125 C 318.945312 555.523438 324.429688 555.199219 329.027344 554.796875 C 331.527344 549.636719 333.464844 544.472656 336.285156 539.957031 C 344.109375 527.210938 347.660156 513.175781 349.03125 498.496094 C 349.273438 495.511719 349.757812 493.011719 354.113281 493.660156 C 354.113281 453.007812 354.113281 412.675781 354.113281 372.1875 C 352.417969 372.1875 350.402344 371.945312 348.464844 372.1875 C 334.835938 374.121094 321.527344 371.542969 308.21875 369.203125 C 302.734375 368.234375 297.25 366.703125 291.683594 365.894531 C 290.230469 365.652344 287.8125 366.539062 287.164062 367.667969 C 283.375 374.203125 278.050781 377.269531 270.46875 377.75 C 267 377.992188 262.808594 379.6875 260.46875 382.109375 C 253.289062 389.6875 244.09375 392.753906 234.738281 396.0625 C 224.816406 399.53125 214.652344 402.675781 205.054688 406.871094 C 194.410156 411.546875 192.472656 419.613281 198.199219 429.855469 C 204.652344 441.390625 213.445312 450.828125 222.71875 460.023438 C 224.332031 461.636719 225.945312 463.25 227.238281 465.105469 C 230.945312 470.1875 234.980469 471.878906 241.269531 467.765625 C 248.207031 463.167969 254.257812 463.167969 259.742188 469.378906 C 264.5 474.785156 267.484375 481.722656 271.035156 488.171875 C 271.355469 488.738281 270.226562 490.914062 269.582031 490.996094 C 260.144531 491.882812 250.707031 492.933594 241.269531 493.175781 C 238.527344 493.253906 235.300781 491.5625 233.042969 489.785156 C 227.640625 485.59375 221.992188 482.203125 215.136719 481.238281 C 209.734375 480.429688 206.265625 477.125 203.765625 472.605469 C 194.410156 456.070312 184.488281 439.859375 172.550781 425.019531 C 167.792969 419.050781 166.824219 411.789062 167.386719 404.449219 C 167.710938 400.09375 170.613281 396.867188 174.003906 394.285156 C 179.164062 390.414062 184.328125 386.625 189.488281 382.753906 C 190.699219 381.867188 191.828125 380.734375 193.925781 378.882812 C 188.035156 377.511719 183.195312 376.300781 178.277344 375.25 C 172.871094 374.121094 167.46875 373.234375 162.144531 372.347656 C 155.128906 371.136719 148.917969 372.832031 146.578125 381.542969 C 143.351562 393.640625 140.125 405.578125 140.527344 418.242188 C 140.609375 421.066406 141.738281 423.886719 142.382812 426.792969 C 143.191406 430.503906 143.753906 434.210938 144.640625 437.921875 C 144.964844 439.292969 145.367188 440.746094 146.253906 441.792969 C 147.0625 442.761719 148.433594 443.648438 149.5625 443.8125 C 162.304688 445.585938 165.855469 454.941406 167.792969 465.589844 C 168.273438 468.25 168.597656 470.914062 168.679688 473.574219 C 168.839844 478.816406 168.4375 479.300781 163.195312 478.253906 C 157.710938 477.125 152.222656 475.671875 146.902344 473.976562 C 145.289062 473.492188 143.753906 471.878906 142.789062 470.429688 C 138.351562 463.574219 135.285156 455.507812 129.71875 449.859375 C 119.636719 439.617188 119.316406 428.324219 122.136719 415.742188 C 125.285156 401.386719 126.734375 386.867188 126.011719 372.1875 C 125.769531 367.910156 127.058594 364.28125 129.558594 360.976562 C 131.898438 357.910156 134.316406 354.84375 136.65625 351.78125 C 139.640625 347.90625 143.753906 346.457031 148.351562 346.941406 C 161.097656 348.148438 173.4375 345.648438 185.859375 343.792969 C 192.3125 342.828125 198.925781 342.664062 205.457031 342.421875 C 211.265625 342.179688 212.558594 340.730469 210.460938 335.246094 C 207.070312 326.371094 203.925781 317.5 203.28125 307.820312 C 202.472656 295.640625 203.683594 283.785156 207.636719 272.167969 C 216.265625 246.683594 214.734375 221.195312 207.070312 195.867188 C 205.457031 190.542969 201.75 185.785156 198.523438 181.105469 C 196.585938 178.363281 194.972656 178.929688 193.84375 182.15625 C 192.070312 187.316406 190.296875 192.480469 188.519531 197.640625 C 184.730469 208.773438 185.9375 219.824219 189.328125 230.710938 C 190.296875 233.777344 192.554688 236.519531 194.410156 239.261719 C 196.746094 242.730469 197.152344 246.277344 195.132812 249.828125 C 194.488281 251.039062 192.875 251.84375 191.746094 252.8125 C 190.941406 251.601562 190.054688 250.472656 189.246094 249.183594 C 188.277344 248.859375 188.199219 248.296875 187.792969 247.246094 Z M 187.792969 247.246094 " fill-opacity="1" fill-rule="nonzero"/></svg>